<?xml version="1.0" encoding="UTF-8"?>
<svg id="Layer_1" data-name="Layer 1" xmlns="http://www.w3.org/2000/svg" viewBox="0 0 319.71 85.04">
  <defs>
    <style>
      .cls-1 {
        fill: #64c1cb;
      }

      .cls-2 {
        fill: #005854;
      }
    </style>
  </defs>
  <g>
    <path class="cls-2" d="M94.09,27.26c-.6-.26-1.08-.63-1.43-1.11-.35-.49-.53-1.06-.54-1.72h2.32c.03,.44,.19,.8,.47,1.05,.28,.26,.67,.39,1.17,.39s.9-.12,1.19-.36c.29-.24,.43-.56,.43-.95,0-.32-.1-.58-.29-.79-.2-.21-.44-.37-.74-.49s-.7-.25-1.22-.39c-.7-.21-1.27-.41-1.71-.61-.44-.2-.82-.51-1.13-.91-.32-.41-.47-.95-.47-1.63,0-.64,.16-1.2,.48-1.67,.32-.47,.77-.84,1.35-1.09,.58-.25,1.24-.38,1.98-.38,1.11,0,2.02,.27,2.72,.81s1.08,1.3,1.15,2.27h-2.38c-.02-.37-.18-.68-.47-.92s-.68-.36-1.17-.36c-.42,0-.76,.11-1.01,.33s-.38,.53-.38,.94c0,.29,.1,.53,.29,.72,.19,.19,.43,.35,.71,.46s.68,.26,1.2,.41c.7,.21,1.28,.41,1.72,.62,.44,.21,.83,.52,1.15,.93,.32,.41,.48,.95,.48,1.63,0,.58-.15,1.11-.45,1.61-.3,.5-.74,.89-1.32,1.18s-1.26,.44-2.06,.44-1.43-.13-2.04-.39Z"/>
    <path class="cls-2" d="M109.93,18.96v8.58h-2.18v-1.08c-.28,.37-.64,.66-1.09,.88s-.94,.32-1.46,.32c-.67,0-1.26-.14-1.78-.43s-.92-.7-1.22-1.25c-.29-.55-.44-1.21-.44-1.97v-5.03h2.17v4.72c0,.68,.17,1.21,.51,1.57,.34,.37,.81,.55,1.39,.55s1.07-.18,1.41-.55c.34-.37,.51-.89,.51-1.57v-4.72h2.18Z"/>
    <path class="cls-2" d="M113.64,27.13c-.66-.37-1.18-.89-1.56-1.56-.38-.67-.57-1.45-.57-2.32s.19-1.65,.58-2.32c.39-.67,.92-1.19,1.59-1.56,.67-.37,1.42-.55,2.25-.55s1.57,.18,2.25,.55c.67,.37,1.2,.89,1.59,1.56,.39,.67,.58,1.45,.58,2.32s-.2,1.65-.6,2.32c-.4,.67-.93,1.19-1.61,1.56s-1.43,.55-2.27,.55-1.57-.18-2.23-.55Zm3.34-1.63c.35-.19,.62-.48,.83-.86,.21-.38,.31-.85,.31-1.39,0-.82-.21-1.44-.64-1.88-.43-.44-.95-.66-1.57-.66s-1.14,.22-1.56,.66c-.42,.44-.63,1.07-.63,1.88s.2,1.44,.61,1.88c.41,.44,.92,.66,1.54,.66,.39,0,.76-.1,1.11-.29Z"/>
    <path class="cls-2" d="M135.14,19.81c.64,.65,.97,1.55,.97,2.7v5.03h-2.17v-4.74c0-.67-.17-1.18-.51-1.54-.34-.36-.81-.53-1.39-.53s-1.06,.18-1.4,.53c-.35,.36-.52,.87-.52,1.54v4.74h-2.17v-4.74c0-.67-.17-1.18-.51-1.54-.34-.36-.81-.53-1.39-.53s-1.07,.18-1.42,.53-.52,.87-.52,1.54v4.74h-2.17v-8.58h2.17v1.04c.28-.36,.64-.65,1.08-.85s.92-.31,1.45-.31c.67,0,1.27,.14,1.8,.43,.53,.28,.93,.69,1.22,1.22,.28-.5,.68-.89,1.22-1.19,.53-.3,1.11-.45,1.73-.45,1.05,0,1.9,.32,2.55,.97Z"/>
    <path class="cls-2" d="M146.08,23.9h-6.27c.05,.62,.27,1.1,.65,1.46,.38,.35,.85,.53,1.41,.53,.81,0,1.38-.35,1.72-1.04h2.34c-.25,.83-.72,1.5-1.42,2.04-.7,.53-1.56,.8-2.59,.8-.83,0-1.57-.18-2.22-.55-.66-.37-1.17-.89-1.53-1.56-.37-.67-.55-1.45-.55-2.32s.18-1.67,.54-2.34c.36-.67,.87-1.19,1.52-1.55,.65-.36,1.4-.54,2.25-.54s1.55,.18,2.19,.53c.64,.35,1.15,.85,1.5,1.49,.36,.65,.53,1.39,.53,2.22,0,.31-.02,.59-.06,.84Zm-2.18-1.46c-.01-.56-.21-1-.6-1.34-.39-.34-.87-.5-1.44-.5-.54,0-.99,.16-1.35,.49-.37,.33-.59,.78-.67,1.36h4.07Z"/>
    <path class="cls-2" d="M154.96,19.81c.63,.65,.94,1.55,.94,2.7v5.03h-2.17v-4.74c0-.68-.17-1.21-.51-1.57-.34-.37-.81-.55-1.39-.55s-1.07,.18-1.42,.55c-.35,.37-.52,.89-.52,1.57v4.74h-2.17v-8.58h2.17v1.07c.29-.37,.66-.66,1.11-.87s.94-.32,1.48-.32c1.02,0,1.85,.32,2.48,.97Z"/>
    <path class="cls-2" d="M169.86,18.96l-5.31,12.64h-2.31l1.86-4.27-3.44-8.36h2.43l2.21,5.99,2.25-5.99h2.31Z"/>
    <path class="cls-2" d="M184.22,19.81c.64,.65,.97,1.55,.97,2.7v5.03h-2.17v-4.74c0-.67-.17-1.18-.51-1.54-.34-.36-.81-.53-1.39-.53s-1.06,.18-1.4,.53c-.35,.36-.52,.87-.52,1.54v4.74h-2.17v-4.74c0-.67-.17-1.18-.51-1.54-.34-.36-.81-.53-1.39-.53s-1.07,.18-1.42,.53-.52,.87-.52,1.54v4.74h-2.17v-8.58h2.17v1.04c.28-.36,.64-.65,1.08-.85s.92-.31,1.45-.31c.67,0,1.27,.14,1.8,.43,.53,.28,.93,.69,1.22,1.22,.28-.5,.68-.89,1.22-1.19,.53-.3,1.11-.45,1.73-.45,1.05,0,1.9,.32,2.55,.97Z"/>
    <path class="cls-2" d="M190.57,19.22c.49-.26,1.05-.39,1.68-.39,.73,0,1.4,.18,1.99,.54s1.06,.87,1.41,1.54c.35,.67,.52,1.44,.52,2.32s-.17,1.65-.52,2.33c-.35,.68-.82,1.2-1.41,1.57s-1.26,.56-1.99,.56c-.63,0-1.19-.13-1.66-.39-.48-.26-.87-.58-1.17-.98v5.31h-2.17v-12.67h2.17v1.24c.28-.39,.66-.72,1.15-.98Zm3.07,2.66c-.21-.38-.49-.66-.84-.86-.35-.2-.72-.29-1.12-.29s-.76,.1-1.11,.3c-.35,.2-.62,.49-.84,.87-.21,.38-.32,.83-.32,1.35s.11,.97,.32,1.35c.21,.38,.49,.67,.84,.88,.35,.2,.71,.3,1.11,.3s.78-.1,1.12-.31c.35-.21,.62-.5,.84-.88,.21-.38,.32-.84,.32-1.36s-.11-.96-.32-1.34Z"/>
    <path class="cls-2" d="M197.71,20.91c.35-.67,.82-1.19,1.41-1.55,.59-.36,1.26-.54,1.99-.54,.64,0,1.2,.13,1.68,.39,.48,.26,.86,.58,1.15,.98v-1.22h2.18v8.58h-2.18v-1.25c-.28,.4-.66,.74-1.15,1-.49,.26-1.06,.39-1.7,.39-.72,0-1.38-.19-1.97-.56-.59-.37-1.06-.9-1.41-1.57-.35-.68-.52-1.45-.52-2.33s.17-1.64,.52-2.31Zm5.92,.98c-.21-.38-.48-.67-.84-.87-.35-.2-.73-.3-1.13-.3s-.77,.1-1.11,.29c-.34,.2-.62,.48-.83,.86-.21,.38-.32,.82-.32,1.34s.11,.97,.32,1.35c.21,.39,.49,.68,.84,.89,.35,.21,.72,.31,1.11,.31s.78-.1,1.13-.3c.35-.2,.63-.49,.84-.87,.21-.38,.31-.83,.31-1.36s-.1-.98-.31-1.35Zm-3.84-4.25c-.2-.2-.29-.44-.29-.73s.1-.53,.29-.74c.2-.2,.44-.3,.73-.3s.53,.1,.73,.3c.2,.2,.3,.45,.3,.74s-.1,.53-.3,.73c-.2,.2-.45,.29-.73,.29s-.53-.1-.73-.29Zm2.86,0c-.2-.2-.29-.44-.29-.73s.1-.53,.29-.74c.2-.2,.44-.3,.73-.3s.53,.1,.74,.3c.2,.2,.3,.45,.3,.74s-.1,.53-.3,.73c-.2,.2-.45,.29-.74,.29s-.53-.1-.73-.29Z"/>
    <path class="cls-2" d="M211.5,19.23c.45-.26,.96-.39,1.54-.39v2.28h-.57c-.68,0-1.19,.16-1.54,.48-.35,.32-.52,.88-.52,1.67v4.27h-2.17v-8.58h2.17v1.33c.28-.45,.64-.81,1.09-1.07Z"/>
    <path class="cls-2" d="M214.65,17.58c-.25-.24-.38-.54-.38-.91s.13-.66,.38-.91c.25-.24,.57-.36,.95-.36s.7,.12,.95,.36c.25,.24,.38,.54,.38,.91s-.13,.66-.38,.91c-.25,.24-.57,.36-.95,.36s-.7-.12-.95-.36Zm2.02,1.39v8.58h-2.17v-8.58h2.17Z"/>
    <path class="cls-2" d="M220.2,27.3c-.56-.25-1-.6-1.32-1.03s-.5-.91-.53-1.44h2.18c.04,.33,.2,.6,.49,.82,.28,.22,.64,.33,1.06,.33s.74-.08,.97-.25c.23-.16,.35-.38,.35-.63,0-.28-.14-.49-.43-.63s-.74-.29-1.36-.46c-.64-.15-1.16-.31-1.57-.48-.41-.16-.76-.42-1.05-.76s-.44-.8-.44-1.38c0-.47,.14-.91,.41-1.3,.27-.39,.67-.7,1.18-.93s1.11-.34,1.8-.34c1.02,0,1.84,.26,2.45,.77,.61,.51,.94,1.2,1.01,2.07h-2.07c-.03-.34-.17-.61-.43-.81s-.59-.3-1.01-.3c-.39,0-.69,.07-.91,.22-.21,.14-.32,.35-.32,.6,0,.29,.14,.51,.43,.66s.74,.3,1.35,.46c.62,.15,1.13,.32,1.53,.48,.4,.17,.75,.42,1.04,.77s.45,.8,.46,1.37c0,.5-.14,.94-.41,1.33-.27,.39-.67,.7-1.18,.92-.51,.22-1.11,.33-1.79,.33s-1.33-.13-1.89-.38Z"/>
    <path class="cls-2" d="M229.77,20.74v4.15c0,.29,.07,.5,.21,.63s.37,.19,.7,.19h1.01v1.83h-1.36c-1.83,0-2.74-.89-2.74-2.66v-4.13h-1.02v-1.78h1.02v-2.12h2.18v2.12h1.92v1.78h-1.92Z"/>
    <path class="cls-2" d="M234.83,27.13c-.66-.37-1.18-.89-1.56-1.56-.38-.67-.57-1.45-.57-2.32s.19-1.65,.58-2.32c.39-.67,.92-1.19,1.59-1.56,.67-.37,1.42-.55,2.25-.55s1.57,.18,2.25,.55c.67,.37,1.2,.89,1.59,1.56,.39,.67,.58,1.45,.58,2.32s-.2,1.65-.6,2.32c-.4,.67-.93,1.19-1.61,1.56s-1.43,.55-2.27,.55-1.57-.18-2.23-.55Zm.22-9.59c-.2-.2-.29-.44-.29-.73s.1-.53,.29-.74c.2-.2,.44-.3,.73-.3s.53,.1,.74,.3c.2,.2,.3,.45,.3,.74s-.1,.53-.3,.73c-.2,.2-.45,.29-.74,.29s-.53-.1-.73-.29Zm3.12,7.97c.35-.19,.62-.48,.83-.86,.21-.38,.31-.85,.31-1.39,0-.82-.21-1.44-.64-1.88-.43-.44-.95-.66-1.57-.66s-1.14,.22-1.56,.66c-.42,.44-.63,1.07-.63,1.88s.2,1.44,.61,1.88c.41,.44,.92,.66,1.54,.66,.39,0,.76-.1,1.11-.29Zm-.26-7.97c-.2-.2-.29-.44-.29-.73s.1-.53,.29-.74c.2-.2,.44-.3,.73-.3s.53,.1,.74,.3c.2,.2,.3,.45,.3,.74s-.1,.53-.3,.73c-.2,.2-.45,.29-.74,.29s-.53-.1-.73-.29Z"/>
    <path class="cls-2" d="M248.21,27.54l-2.91-3.65v3.65h-2.17v-11.46h2.17v6.52l2.88-3.64h2.82l-3.78,4.3,3.81,4.27h-2.82Z"/>
    <path class="cls-2" d="M260.09,23.9h-6.27c.05,.62,.27,1.1,.65,1.46,.38,.35,.85,.53,1.41,.53,.81,0,1.38-.35,1.72-1.04h2.34c-.25,.83-.72,1.5-1.42,2.04-.7,.53-1.56,.8-2.59,.8-.83,0-1.57-.18-2.22-.55-.66-.37-1.17-.89-1.53-1.56-.37-.67-.55-1.45-.55-2.32s.18-1.67,.54-2.34c.36-.67,.87-1.19,1.52-1.55,.65-.36,1.4-.54,2.25-.54s1.55,.18,2.19,.53c.64,.35,1.15,.85,1.5,1.49,.36,.65,.53,1.39,.53,2.22,0,.31-.02,.59-.06,.84Zm-2.18-1.46c-.01-.56-.21-1-.6-1.34-.39-.34-.87-.5-1.44-.5-.54,0-.99,.16-1.35,.49-.37,.33-.59,.78-.67,1.36h4.07Z"/>
    <path class="cls-2" d="M263.12,27.3c-.56-.25-1-.6-1.32-1.03s-.5-.91-.53-1.44h2.18c.04,.33,.2,.6,.49,.82,.28,.22,.64,.33,1.06,.33s.74-.08,.97-.25c.23-.16,.35-.38,.35-.63,0-.28-.14-.49-.43-.63s-.74-.29-1.36-.46c-.64-.15-1.16-.31-1.57-.48-.41-.16-.76-.42-1.05-.76s-.44-.8-.44-1.38c0-.47,.14-.91,.41-1.3,.27-.39,.67-.7,1.18-.93s1.11-.34,1.8-.34c1.02,0,1.84,.26,2.45,.77,.61,.51,.94,1.2,1.01,2.07h-2.07c-.03-.34-.17-.61-.43-.81s-.59-.3-1.01-.3c-.39,0-.69,.07-.91,.22-.21,.14-.32,.35-.32,.6,0,.29,.14,.51,.43,.66s.74,.3,1.35,.46c.62,.15,1.13,.32,1.53,.48,.4,.17,.75,.42,1.04,.77s.45,.8,.46,1.37c0,.5-.14,.94-.41,1.33-.27,.39-.67,.7-1.18,.92-.51,.22-1.11,.33-1.79,.33s-1.33-.13-1.89-.38Z"/>
    <path class="cls-2" d="M275.25,27.54l-2.91-3.65v3.65h-2.17v-11.46h2.17v6.52l2.88-3.64h2.82l-3.78,4.3,3.81,4.27h-2.82Z"/>
    <path class="cls-2" d="M287.31,18.96v8.58h-2.18v-1.08c-.28,.37-.64,.66-1.09,.88s-.94,.32-1.46,.32c-.67,0-1.26-.14-1.78-.43s-.92-.7-1.22-1.25c-.29-.55-.44-1.21-.44-1.97v-5.03h2.17v4.72c0,.68,.17,1.21,.51,1.57,.34,.37,.81,.55,1.39,.55s1.07-.18,1.41-.55c.34-.37,.51-.89,.51-1.57v-4.72h2.18Z"/>
    <path class="cls-2" d="M290.84,27.3c-.56-.25-1-.6-1.32-1.03s-.5-.91-.53-1.44h2.18c.04,.33,.2,.6,.49,.82,.28,.22,.64,.33,1.06,.33s.74-.08,.97-.25c.23-.16,.35-.38,.35-.63,0-.28-.14-.49-.43-.63s-.74-.29-1.36-.46c-.64-.15-1.16-.31-1.57-.48-.41-.16-.76-.42-1.05-.76s-.44-.8-.44-1.38c0-.47,.14-.91,.41-1.3,.27-.39,.67-.7,1.18-.93s1.11-.34,1.8-.34c1.02,0,1.84,.26,2.45,.77,.61,.51,.94,1.2,1.01,2.07h-2.07c-.03-.34-.17-.61-.43-.81s-.59-.3-1.01-.3c-.39,0-.69,.07-.91,.22-.21,.14-.32,.35-.32,.6,0,.29,.14,.51,.43,.66s.74,.3,1.35,.46c.62,.15,1.13,.32,1.53,.48,.4,.17,.75,.42,1.04,.77s.45,.8,.46,1.37c0,.5-.14,.94-.41,1.33-.27,.39-.67,.7-1.18,.92-.51,.22-1.11,.33-1.79,.33s-1.33-.13-1.89-.38Z"/>
    <path class="cls-2" d="M99.07,37.71v1.75h-4.51v2.77h3.45v1.72h-3.45v4.57h-2.17v-10.81h6.67Z"/>
    <path class="cls-2" d="M100.75,38.56c-.25-.24-.38-.54-.38-.91s.13-.66,.38-.91c.25-.24,.57-.36,.95-.36s.7,.12,.95,.36c.25,.24,.38,.54,.38,.91s-.13,.66-.38,.91c-.25,.24-.57,.36-.95,.36s-.7-.12-.95-.36Zm2.02,1.39v8.58h-2.17v-8.58h2.17Z"/>
    <path class="cls-2" d="M112.14,40.78c.63,.65,.94,1.55,.94,2.7v5.03h-2.17v-4.74c0-.68-.17-1.21-.51-1.57-.34-.37-.81-.55-1.39-.55s-1.07,.18-1.42,.55c-.35,.37-.52,.89-.52,1.57v4.74h-2.17v-8.58h2.17v1.07c.29-.37,.66-.66,1.11-.87s.94-.32,1.48-.32c1.02,0,1.85,.32,2.48,.97Z"/>
    <path class="cls-2" d="M117.31,37.06v11.46h-2.17v-11.46h2.17Z"/>
    <path class="cls-2" d="M119.41,41.89c.35-.67,.82-1.19,1.41-1.55,.59-.36,1.26-.54,1.99-.54,.64,0,1.2,.13,1.68,.39,.48,.26,.86,.58,1.15,.98v-1.22h2.18v8.58h-2.18v-1.25c-.28,.4-.66,.74-1.15,1-.49,.26-1.06,.39-1.7,.39-.72,0-1.38-.19-1.97-.56-.59-.37-1.06-.9-1.41-1.57-.35-.68-.52-1.45-.52-2.33s.17-1.64,.52-2.31Zm5.92,.98c-.21-.38-.48-.67-.84-.87-.35-.2-.73-.3-1.13-.3s-.77,.1-1.11,.29c-.34,.2-.62,.48-.83,.86-.21,.38-.32,.82-.32,1.34s.11,.97,.32,1.35c.21,.39,.49,.68,.84,.89,.35,.21,.72,.31,1.11,.31s.78-.1,1.13-.3c.35-.2,.63-.49,.84-.87,.21-.38,.31-.83,.31-1.36s-.1-.98-.31-1.35Z"/>
    <path class="cls-2" d="M137.18,40.78c.63,.65,.94,1.55,.94,2.7v5.03h-2.17v-4.74c0-.68-.17-1.21-.51-1.57-.34-.37-.81-.55-1.39-.55s-1.07,.18-1.42,.55c-.35,.37-.52,.89-.52,1.57v4.74h-2.17v-8.58h2.17v1.07c.29-.37,.66-.66,1.11-.87s.94-.32,1.48-.32c1.02,0,1.85,.32,2.48,.97Z"/>
    <path class="cls-2" d="M140.15,41.89c.35-.67,.82-1.19,1.42-1.55,.6-.36,1.26-.54,2-.54,.56,0,1.09,.12,1.6,.36,.51,.24,.91,.57,1.21,.97v-4.07h2.2v11.46h-2.2v-1.27c-.27,.42-.64,.76-1.13,1.02-.48,.26-1.05,.39-1.69,.39-.72,0-1.38-.19-1.98-.56-.6-.37-1.07-.9-1.42-1.57-.35-.68-.52-1.45-.52-2.33s.17-1.64,.52-2.31Zm5.92,.98c-.21-.38-.48-.67-.84-.87-.35-.2-.73-.3-1.13-.3s-.77,.1-1.11,.29c-.34,.2-.62,.48-.83,.86-.21,.38-.32,.82-.32,1.34s.11,.97,.32,1.35c.21,.39,.49,.68,.84,.89,.35,.21,.72,.31,1.11,.31s.78-.1,1.13-.3c.35-.2,.63-.49,.84-.87,.21-.38,.31-.83,.31-1.36s-.1-.98-.31-1.35Z"/>
    <path class="cls-2" d="M152.08,48.28c-.56-.25-1-.6-1.32-1.03s-.5-.91-.53-1.44h2.18c.04,.33,.2,.6,.49,.82,.28,.22,.64,.33,1.06,.33s.74-.08,.97-.25c.23-.16,.35-.38,.35-.63,0-.28-.14-.49-.43-.63s-.74-.29-1.36-.46c-.64-.15-1.16-.31-1.57-.48-.41-.16-.76-.42-1.05-.76s-.44-.8-.44-1.38c0-.47,.14-.91,.41-1.3,.27-.39,.67-.7,1.18-.93s1.11-.34,1.8-.34c1.02,0,1.84,.26,2.45,.77,.61,.51,.94,1.2,1.01,2.07h-2.07c-.03-.34-.17-.61-.43-.81s-.59-.3-1.01-.3c-.39,0-.69,.07-.91,.22-.21,.14-.32,.35-.32,.6,0,.29,.14,.51,.43,.66s.74,.3,1.35,.46c.62,.15,1.13,.32,1.53,.48,.4,.17,.75,.42,1.04,.77s.45,.8,.46,1.37c0,.5-.14,.94-.41,1.33-.27,.39-.67,.7-1.18,.92-.51,.22-1.11,.33-1.79,.33s-1.33-.13-1.89-.38Z"/>
    <path class="cls-2" d="M176.01,40.78c.64,.65,.97,1.55,.97,2.7v5.03h-2.17v-4.74c0-.67-.17-1.18-.51-1.54-.34-.36-.81-.53-1.39-.53s-1.06,.18-1.4,.53c-.35,.36-.52,.87-.52,1.54v4.74h-2.17v-4.74c0-.67-.17-1.18-.51-1.54-.34-.36-.81-.53-1.39-.53s-1.07,.18-1.42,.53-.52,.87-.52,1.54v4.74h-2.17v-8.58h2.17v1.04c.28-.36,.64-.65,1.08-.85s.92-.31,1.45-.31c.67,0,1.27,.14,1.8,.43,.53,.28,.93,.69,1.22,1.22,.28-.5,.68-.89,1.22-1.19,.53-.3,1.11-.45,1.73-.45,1.05,0,1.9,.32,2.55,.97Z"/>
    <path class="cls-2" d="M179.18,38.56c-.25-.24-.38-.54-.38-.91s.13-.66,.38-.91c.25-.24,.57-.36,.95-.36s.7,.12,.95,.36c.25,.24,.38,.54,.38,.91s-.13,.66-.38,.91c-.25,.24-.57,.36-.95,.36s-.7-.12-.95-.36Zm2.02,1.39v8.58h-2.17v-8.58h2.17Z"/>
    <path class="cls-2" d="M185.51,37.06v11.46h-2.17v-11.46h2.17Z"/>
    <path class="cls-2" d="M189.82,49.93c0,.95-.24,1.63-.7,2.05-.47,.42-1.14,.63-2.02,.63h-.96v-1.84h.62c.33,0,.56-.06,.7-.19,.13-.13,.2-.34,.2-.63v-10h2.17v9.99Zm-2.04-11.37c-.25-.24-.38-.54-.38-.91s.13-.66,.38-.91c.25-.24,.58-.36,.97-.36s.7,.12,.94,.36c.25,.24,.37,.54,.37,.91s-.12,.66-.37,.91c-.25,.24-.56,.36-.94,.36s-.72-.12-.97-.36Z"/>
    <path class="cls-2" d="M193.53,48.11c-.66-.37-1.18-.89-1.56-1.56-.38-.67-.57-1.45-.57-2.32s.19-1.65,.58-2.32c.39-.67,.92-1.19,1.59-1.56,.67-.37,1.42-.55,2.25-.55s1.57,.18,2.25,.55c.67,.37,1.2,.89,1.59,1.56,.39,.67,.58,1.45,.58,2.32s-.2,1.65-.6,2.32c-.4,.67-.93,1.19-1.61,1.56s-1.43,.55-2.27,.55-1.57-.18-2.23-.55Zm.22-9.59c-.2-.2-.29-.44-.29-.73s.1-.53,.29-.74c.2-.2,.44-.3,.73-.3s.53,.1,.74,.3c.2,.2,.3,.45,.3,.74s-.1,.53-.3,.73c-.2,.2-.45,.29-.74,.29s-.53-.1-.73-.29Zm3.12,7.97c.35-.19,.62-.48,.83-.86,.21-.38,.31-.85,.31-1.39,0-.82-.21-1.44-.64-1.88-.43-.44-.95-.66-1.57-.66s-1.14,.22-1.56,.66c-.42,.44-.63,1.07-.63,1.88s.2,1.44,.61,1.88c.41,.44,.92,.66,1.54,.66,.39,0,.76-.1,1.11-.29Zm-.26-7.97c-.2-.2-.29-.44-.29-.73s.1-.53,.29-.74c.2-.2,.44-.3,.73-.3s.53,.1,.74,.3c.2,.2,.3,.45,.3,.74s-.1,.53-.3,.73c-.2,.2-.45,.29-.74,.29s-.53-.1-.73-.29Z"/>
    <path class="cls-2" d="M201.82,41.9c.36-.67,.86-1.18,1.5-1.55,.64-.37,1.37-.55,2.2-.55,1.06,0,1.94,.27,2.64,.8,.7,.53,1.16,1.28,1.4,2.24h-2.34c-.12-.37-.33-.66-.63-.87s-.66-.32-1.09-.32c-.62,0-1.11,.22-1.47,.67-.36,.45-.54,1.09-.54,1.91s.18,1.45,.54,1.9c.36,.45,.85,.67,1.47,.67,.88,0,1.45-.39,1.72-1.18h2.34c-.24,.93-.71,1.67-1.41,2.21s-1.58,.82-2.63,.82c-.83,0-1.56-.18-2.2-.55-.64-.37-1.14-.88-1.5-1.55-.36-.67-.54-1.44-.54-2.33s.18-1.66,.54-2.33Z"/>
    <path class="cls-2" d="M219.07,44.88h-6.27c.05,.62,.27,1.1,.65,1.46,.38,.35,.85,.53,1.41,.53,.81,0,1.38-.35,1.72-1.04h2.34c-.25,.83-.72,1.5-1.42,2.04-.7,.53-1.56,.8-2.59,.8-.83,0-1.57-.18-2.22-.55-.66-.37-1.17-.89-1.53-1.56-.37-.67-.55-1.45-.55-2.32s.18-1.67,.54-2.34c.36-.67,.87-1.19,1.52-1.55,.65-.36,1.4-.54,2.25-.54s1.55,.18,2.19,.53c.64,.35,1.15,.85,1.5,1.49,.36,.65,.53,1.39,.53,2.22,0,.31-.02,.59-.06,.84Zm-2.18-1.46c-.01-.56-.21-1-.6-1.34-.39-.34-.87-.5-1.44-.5-.54,0-.99,.16-1.35,.49-.37,.33-.59,.78-.67,1.36h4.07Z"/>
    <path class="cls-2" d="M227.94,40.78c.63,.65,.94,1.55,.94,2.7v5.03h-2.17v-4.74c0-.68-.17-1.21-.51-1.57-.34-.37-.81-.55-1.39-.55s-1.07,.18-1.42,.55c-.35,.37-.52,.89-.52,1.57v4.74h-2.17v-8.58h2.17v1.07c.29-.37,.66-.66,1.11-.87s.94-.32,1.48-.32c1.02,0,1.85,.32,2.48,.97Z"/>
    <path class="cls-2" d="M233.47,41.72v4.15c0,.29,.07,.5,.21,.63s.37,.19,.7,.19h1.01v1.83h-1.36c-1.83,0-2.74-.89-2.74-2.66v-4.13h-1.02v-1.78h1.02v-2.12h2.18v2.12h1.92v1.78h-1.92Z"/>
    <path class="cls-2" d="M240.21,40.2c.45-.26,.96-.39,1.54-.39v2.28h-.57c-.68,0-1.19,.16-1.54,.48-.35,.32-.52,.88-.52,1.67v4.27h-2.17v-8.58h2.17v1.33c.28-.45,.64-.81,1.09-1.07Z"/>
    <path class="cls-2" d="M243.17,41.89c.35-.67,.82-1.19,1.41-1.55,.59-.36,1.26-.54,1.99-.54,.64,0,1.2,.13,1.68,.39,.48,.26,.86,.58,1.15,.98v-1.22h2.18v8.58h-2.18v-1.25c-.28,.4-.66,.74-1.15,1-.49,.26-1.06,.39-1.7,.39-.72,0-1.38-.19-1.97-.56-.59-.37-1.06-.9-1.41-1.57-.35-.68-.52-1.45-.52-2.33s.17-1.64,.52-2.31Zm5.92,.98c-.21-.38-.48-.67-.84-.87-.35-.2-.73-.3-1.13-.3s-.77,.1-1.11,.29c-.34,.2-.62,.48-.83,.86-.21,.38-.32,.82-.32,1.34s.11,.97,.32,1.35c.21,.39,.49,.68,.84,.89,.35,.21,.72,.31,1.11,.31s.78-.1,1.13-.3c.35-.2,.63-.49,.84-.87,.21-.38,.31-.83,.31-1.36s-.1-.98-.31-1.35Z"/>
    <path class="cls-2" d="M255.88,37.06v11.46h-2.17v-11.46h2.17Z"/>
    <path class="cls-2" d="M99.07,58.69v1.75h-4.51v2.77h3.45v1.72h-3.45v4.57h-2.17v-10.81h6.67Z"/>
    <path class="cls-2" d="M100.75,59.54c-.25-.24-.38-.54-.38-.91s.13-.66,.38-.91c.25-.24,.57-.36,.95-.36s.7,.12,.95,.36c.25,.24,.38,.54,.38,.91s-.13,.66-.38,.91c-.25,.24-.57,.36-.95,.36s-.7-.12-.95-.36Zm2.02,1.39v8.58h-2.17v-8.58h2.17Z"/>
    <path class="cls-2" d="M112.14,61.76c.63,.65,.94,1.55,.94,2.7v5.03h-2.17v-4.74c0-.68-.17-1.21-.51-1.57-.34-.37-.81-.55-1.39-.55s-1.07,.18-1.42,.55c-.35,.37-.52,.89-.52,1.57v4.74h-2.17v-8.58h2.17v1.07c.29-.37,.66-.66,1.11-.87s.94-.32,1.48-.32c1.02,0,1.85,.32,2.48,.97Z"/>
    <path class="cls-2" d="M122.38,61.76c.63,.65,.94,1.55,.94,2.7v5.03h-2.17v-4.74c0-.68-.17-1.21-.51-1.57-.34-.37-.81-.55-1.39-.55s-1.07,.18-1.42,.55c-.35,.37-.52,.89-.52,1.57v4.74h-2.17v-8.58h2.17v1.07c.29-.37,.66-.66,1.11-.87s.94-.32,1.48-.32c1.02,0,1.85,.32,2.48,.97Z"/>
    <path class="cls-2" d="M125.53,59.54c-.25-.24-.38-.54-.38-.91s.13-.66,.38-.91c.25-.24,.57-.36,.95-.36s.7,.12,.95,.36c.25,.24,.38,.54,.38,.91s-.13,.66-.38,.91c-.25,.24-.57,.36-.95,.36s-.7-.12-.95-.36Zm2.02,1.39v8.58h-2.17v-8.58h2.17Z"/>
    <path class="cls-2" d="M131.08,69.26c-.56-.25-1-.6-1.32-1.03s-.5-.91-.53-1.44h2.18c.04,.33,.2,.6,.49,.82,.28,.22,.64,.33,1.06,.33s.74-.08,.97-.25c.23-.16,.35-.38,.35-.63,0-.28-.14-.49-.43-.63s-.74-.29-1.36-.46c-.64-.15-1.16-.31-1.57-.48-.41-.16-.76-.42-1.05-.76s-.44-.8-.44-1.38c0-.47,.14-.91,.41-1.3,.27-.39,.67-.7,1.18-.93s1.11-.34,1.8-.34c1.02,0,1.84,.26,2.45,.77,.61,.51,.94,1.2,1.01,2.07h-2.07c-.03-.34-.17-.61-.43-.81s-.59-.3-1.01-.3c-.39,0-.69,.07-.91,.22-.21,.14-.32,.35-.32,.6,0,.29,.14,.51,.43,.66s.74,.3,1.35,.46c.62,.15,1.13,.32,1.53,.48,.4,.17,.75,.42,1.04,.77s.45,.8,.46,1.37c0,.5-.14,.94-.41,1.33-.27,.39-.67,.7-1.18,.92-.51,.22-1.11,.33-1.79,.33s-1.33-.13-1.89-.38Z"/>
    <path class="cls-2" d="M144.69,61.22c.51,.28,.9,.7,1.19,1.25,.28,.55,.43,1.22,.43,1.99v5.03h-2.17v-4.74c0-.68-.17-1.21-.51-1.57-.34-.37-.81-.55-1.39-.55s-1.07,.18-1.42,.55c-.35,.37-.52,.89-.52,1.57v4.74h-2.17v-11.46h2.17v3.95c.28-.37,.65-.66,1.11-.87s.98-.32,1.55-.32c.65,0,1.23,.14,1.73,.43Z"/>
    <path class="cls-2" d="M154.22,60.44v2.71h3.64v1.72h-3.64v2.86h4.1v1.77h-6.27v-10.82h6.27v1.77h-4.1Z"/>
    <path class="cls-2" d="M167.52,61.76c.63,.65,.94,1.55,.94,2.7v5.03h-2.17v-4.74c0-.68-.17-1.21-.51-1.57-.34-.37-.81-.55-1.39-.55s-1.07,.18-1.42,.55c-.35,.37-.52,.89-.52,1.57v4.74h-2.17v-8.58h2.17v1.07c.29-.37,.66-.66,1.11-.87s.94-.32,1.48-.32c1.02,0,1.85,.32,2.48,.97Z"/>
    <path class="cls-2" d="M174.1,67.5l2.17-6.58h2.31l-3.17,8.58h-2.63l-3.16-8.58h2.32l2.17,6.58Z"/>
    <path class="cls-2" d="M179.94,59.54c-.25-.24-.38-.54-.38-.91s.13-.66,.38-.91c.25-.24,.57-.36,.95-.36s.7,.12,.95,.36c.25,.24,.38,.54,.38,.91s-.13,.66-.38,.91c-.25,.24-.57,.36-.95,.36s-.7-.12-.95-.36Zm2.02,1.39v8.58h-2.17v-8.58h2.17Z"/>
    <path class="cls-2" d="M187.36,61.18c.45-.26,.96-.39,1.54-.39v2.28h-.57c-.68,0-1.19,.16-1.54,.48-.35,.32-.52,.88-.52,1.67v4.27h-2.17v-8.58h2.17v1.33c.28-.45,.64-.81,1.09-1.07Z"/>
    <path class="cls-2" d="M191.94,69.09c-.66-.37-1.18-.89-1.56-1.56-.38-.67-.57-1.45-.57-2.32s.19-1.65,.58-2.32c.39-.67,.92-1.19,1.59-1.56,.67-.37,1.42-.55,2.25-.55s1.57,.18,2.25,.55c.67,.37,1.2,.89,1.59,1.56,.39,.67,.58,1.45,.58,2.32s-.2,1.65-.6,2.32c-.4,.67-.93,1.19-1.61,1.56s-1.43,.55-2.27,.55-1.57-.18-2.23-.55Zm3.34-1.63c.35-.19,.62-.48,.83-.86,.21-.38,.31-.85,.31-1.39,0-.82-.21-1.44-.64-1.88-.43-.44-.95-.66-1.57-.66s-1.14,.22-1.56,.66c-.42,.44-.63,1.07-.63,1.88s.2,1.44,.61,1.88c.41,.44,.92,.66,1.54,.66,.39,0,.76-.1,1.11-.29Z"/>
    <path class="cls-2" d="M207.47,61.76c.63,.65,.94,1.55,.94,2.7v5.03h-2.17v-4.74c0-.68-.17-1.21-.51-1.57-.34-.37-.81-.55-1.39-.55s-1.07,.18-1.42,.55c-.35,.37-.52,.89-.52,1.57v4.74h-2.17v-8.58h2.17v1.07c.29-.37,.66-.66,1.11-.87s.94-.32,1.48-.32c1.02,0,1.85,.32,2.48,.97Z"/>
    <path class="cls-2" d="M223.68,61.76c.64,.65,.97,1.55,.97,2.7v5.03h-2.17v-4.74c0-.67-.17-1.18-.51-1.54-.34-.36-.81-.53-1.39-.53s-1.06,.18-1.4,.53c-.35,.36-.52,.87-.52,1.54v4.74h-2.17v-4.74c0-.67-.17-1.18-.51-1.54-.34-.36-.81-.53-1.39-.53s-1.07,.18-1.42,.53-.52,.87-.52,1.54v4.74h-2.17v-8.58h2.17v1.04c.28-.36,.64-.65,1.08-.85s.92-.31,1.45-.31c.67,0,1.27,.14,1.8,.43,.53,.28,.93,.69,1.22,1.22,.28-.5,.68-.89,1.22-1.19,.53-.3,1.11-.45,1.73-.45,1.05,0,1.9,.32,2.55,.97Z"/>
    <path class="cls-2" d="M234.62,65.86h-6.27c.05,.62,.27,1.1,.65,1.46,.38,.35,.85,.53,1.41,.53,.81,0,1.38-.35,1.72-1.04h2.34c-.25,.83-.72,1.5-1.42,2.04-.7,.53-1.56,.8-2.59,.8-.83,0-1.57-.18-2.22-.55-.66-.37-1.17-.89-1.53-1.56-.37-.67-.55-1.45-.55-2.32s.18-1.67,.54-2.34c.36-.67,.87-1.19,1.52-1.55,.65-.36,1.4-.54,2.25-.54s1.55,.18,2.19,.53c.64,.35,1.15,.85,1.5,1.49,.36,.65,.53,1.39,.53,2.22,0,.31-.02,.59-.06,.84Zm-2.18-1.46c-.01-.56-.21-1-.6-1.34-.39-.34-.87-.5-1.44-.5-.54,0-.99,.16-1.35,.49-.37,.33-.59,.78-.67,1.36h4.07Z"/>
    <path class="cls-2" d="M243.49,61.76c.63,.65,.94,1.55,.94,2.7v5.03h-2.17v-4.74c0-.68-.17-1.21-.51-1.57-.34-.37-.81-.55-1.39-.55s-1.07,.18-1.42,.55c-.35,.37-.52,.89-.52,1.57v4.74h-2.17v-8.58h2.17v1.07c.29-.37,.66-.66,1.11-.87s.94-.32,1.48-.32c1.02,0,1.85,.32,2.48,.97Z"/>
    <path class="cls-2" d="M249.02,62.7v4.15c0,.29,.07,.5,.21,.63s.37,.19,.7,.19h1.01v1.83h-1.36c-1.83,0-2.74-.89-2.74-2.66v-4.13h-1.02v-1.78h1.02v-2.12h2.18v2.12h1.92v1.78h-1.92Z"/>
    <path class="cls-2" d="M258.35,58.69v10.81h-2.17v-10.81h2.17Z"/>
    <path class="cls-2" d="M267.72,61.76c.63,.65,.94,1.55,.94,2.7v5.03h-2.17v-4.74c0-.68-.17-1.21-.51-1.57-.34-.37-.81-.55-1.39-.55s-1.07,.18-1.42,.55c-.35,.37-.52,.89-.52,1.57v4.74h-2.17v-8.58h2.17v1.07c.29-.37,.66-.66,1.11-.87s.94-.32,1.48-.32c1.02,0,1.85,.32,2.48,.97Z"/>
    <path class="cls-2" d="M272.12,69.26c-.56-.25-1-.6-1.32-1.03s-.5-.91-.53-1.44h2.18c.04,.33,.2,.6,.49,.82,.28,.22,.64,.33,1.06,.33s.74-.08,.97-.25c.23-.16,.35-.38,.35-.63,0-.28-.14-.49-.43-.63s-.74-.29-1.36-.46c-.64-.15-1.16-.31-1.57-.48-.41-.16-.76-.42-1.05-.76s-.44-.8-.44-1.38c0-.47,.14-.91,.41-1.3,.27-.39,.67-.7,1.18-.93s1.11-.34,1.8-.34c1.02,0,1.84,.26,2.45,.77,.61,.51,.94,1.2,1.01,2.07h-2.07c-.03-.34-.17-.61-.43-.81s-.59-.3-1.01-.3c-.39,0-.69,.07-.91,.22-.21,.14-.32,.35-.32,.6,0,.29,.14,.51,.43,.66s.74,.3,1.35,.46c.62,.15,1.13,.32,1.53,.48,.4,.17,.75,.42,1.04,.77s.45,.8,.46,1.37c0,.5-.14,.94-.41,1.33-.27,.39-.67,.7-1.18,.92-.51,.22-1.11,.33-1.79,.33s-1.33-.13-1.89-.38Z"/>
    <path class="cls-2" d="M281.69,62.7v4.15c0,.29,.07,.5,.21,.63s.37,.19,.7,.19h1.01v1.83h-1.36c-1.83,0-2.74-.89-2.74-2.66v-4.13h-1.02v-1.78h1.02v-2.12h2.18v2.12h1.92v1.78h-1.92Z"/>
    <path class="cls-2" d="M285.32,59.54c-.25-.24-.38-.54-.38-.91s.13-.66,.38-.91c.25-.24,.57-.36,.95-.36s.7,.12,.95,.36c.25,.24,.38,.54,.38,.91s-.13,.66-.38,.91c-.25,.24-.57,.36-.95,.36s-.7-.12-.95-.36Zm2.02,1.39v8.58h-2.17v-8.58h2.17Z"/>
    <path class="cls-2" d="M292,62.7v4.15c0,.29,.07,.5,.21,.63s.37,.19,.7,.19h1.01v1.83h-1.36c-1.83,0-2.74-.89-2.74-2.66v-4.13h-1.02v-1.78h1.02v-2.12h2.18v2.12h1.92v1.78h-1.92Z"/>
    <path class="cls-2" d="M303.59,60.92v8.58h-2.18v-1.08c-.28,.37-.64,.66-1.09,.88s-.94,.32-1.46,.32c-.67,0-1.26-.14-1.78-.43s-.92-.7-1.22-1.25c-.29-.55-.44-1.21-.44-1.97v-5.03h2.17v4.72c0,.68,.17,1.21,.51,1.57,.34,.37,.81,.55,1.39,.55s1.07-.18,1.41-.55c.34-.37,.51-.89,.51-1.57v-4.72h2.18Z"/>
    <path class="cls-2" d="M308.25,62.7v4.15c0,.29,.07,.5,.21,.63s.37,.19,.7,.19h1.01v1.83h-1.36c-1.83,0-2.74-.89-2.74-2.66v-4.13h-1.02v-1.78h1.02v-2.12h2.18v2.12h1.92v1.78h-1.92Z"/>
    <path class="cls-2" d="M319.65,65.86h-6.27c.05,.62,.27,1.1,.65,1.46,.38,.35,.85,.53,1.41,.53,.81,0,1.38-.35,1.72-1.04h2.34c-.25,.83-.72,1.5-1.42,2.04-.7,.53-1.56,.8-2.59,.8-.83,0-1.57-.18-2.22-.55-.66-.37-1.17-.89-1.53-1.56-.37-.67-.55-1.45-.55-2.32s.18-1.67,.54-2.34c.36-.67,.87-1.19,1.52-1.55,.65-.36,1.4-.54,2.25-.54s1.55,.18,2.19,.53c.64,.35,1.15,.85,1.5,1.49,.36,.65,.53,1.39,.53,2.22,0,.31-.02,.59-.06,.84Zm-2.18-1.46c-.01-.56-.21-1-.6-1.34-.39-.34-.87-.5-1.44-.5-.54,0-.99,.16-1.35,.49-.37,.33-.59,.78-.67,1.36h4.07Z"/>
  </g>
  <g>
    <path class="cls-2" d="M24.02,61.06c-2.11-1.56-3.99-3.5-5.52-5.82-7.04-10.67-4.11-25.03,6.56-32.07,5.41-3.57,11.76-4.57,17.63-3.3L51.01,1.52C31.25-3.74,10.27,4.99,2.73,22.26c-7.41,16.98,.75,36.31,18.31,45.36l2.97-6.56Z"/>
    <path class="cls-1" d="M51.6,23.97c2.11,1.56,3.99,3.5,5.52,5.82,7.04,10.67,4.11,25.03-6.56,32.07-5.41,3.57-11.76,4.57-17.63,3.3l-8.32,18.35c19.75,5.26,40.73-3.47,48.27-20.74,7.41-16.98-.75-36.31-18.31-45.36l-2.97,6.56Z"/>
  </g>
</svg>